<?xml version="1.0" encoding="utf-8"?>
<!-- Generator: Adobe Illustrator 18.1.1, SVG Export Plug-In . SVG Version: 6.00 Build 0)  -->
<!DOCTYPE svg PUBLIC "-//W3C//DTD SVG 1.1//EN" "http://www.w3.org/Graphics/SVG/1.1/DTD/svg11.dtd">
<svg version="1.1" id="Layer_1" xmlns="http://www.w3.org/2000/svg" xmlns:xlink="http://www.w3.org/1999/xlink" x="0px" y="0px"
	 viewBox="0 0 354 239.9" style="enable-background:new 0 0 354 239.9;" xml:space="preserve">
<style type="text/css">
	.st0{fill:#FFFFFF;}
</style>
<g>
	<path class="st0" d="M0,124.8l0,48.9c0,2.1,1.7,3.8,3.8,3.8h56.5c2.1,0,3.8-1.7,3.8-3.8v-8.1L8.4,133.4C4.3,131,1.5,128,0,124.8z"
		/>
	<path class="st0" d="M9.9,109.2C4.8,112.1,2,115.9,2,120c0,4,2.8,7.9,7.9,10.8l54.2,31.3V77.9L9.9,109.2z"/>
	<polygon class="st0" points="72.6,73 72.6,166.9 136.7,203.9 136.7,36 	"/>
	<path class="st0" d="M72.6,236c0,2.1,1.7,3.8,3.8,3.8h56.5c2.1,0,3.8-1.7,3.8-3.8v-28.6l-64.1-37V236z"/>
	<path class="st0" d="M351.8,120c0-4-2.8-7.9-7.9-10.8l-54-31.2v84l54-31.2C349,127.8,351.8,124,351.8,120z"/>
	<path class="st0" d="M350.2,62.4h-56.5c-2.1,0-3.8,1.7-3.8,3.8v8.3l55.5,32c4.3,2.5,7.3,5.6,8.6,9.1l0-49.4
		C354,64.1,352.3,62.4,350.2,62.4z"/>
	<polygon class="st0" points="217.3,36.1 217.3,203.8 281.5,166.8 281.5,73.1 	"/>
	<path class="st0" d="M281.5,3.8c0-2.1-1.7-3.8-3.8-3.8h-56.5c-2.1,0-3.8,1.7-3.8,3.8v28.8l64.1,37V3.8z"/>
	<path class="st0" d="M208.9,29.8l-1.7-1l-29-16.8l-2.5-1.5l-0.5-0.3l-9-5.2c-10.7-6.2-19.6-2-20.9,9.2l0,0.1c0,0.4-0.1,0.8-0.1,1.2
		c0,0.6-0.1,1.1-0.1,1.7v10.4v3.5v65.6c0,13.4,0,35.3,0,48.7v63.4v1l0,0v0.3l0,0l1.5,0.8l29.2,16.8l2.6,1.5l0.4,0.2l9,5.2
		c10.7,6.2,19.6,2,20.9-9.2l0-0.1c0-0.4,0.1-0.8,0.1-1.2c0-0.6,0.1-1.1,0.1-1.7v-10.4v-3.5v-65.6c0-13.4,0-35.3,0-48.7V31.2v-1.1
		l0,0L208.9,29.8L208.9,29.8z"/>
</g>
</svg>
